<svg width="24" height="24" viewBox="0 0 24 24" fill="none" xmlns="http://www.w3.org/2000/svg">
<path fill-rule="evenodd" clip-rule="evenodd" d="M12 10.4C12.796 10.4 13.559 10.063 14.121 9.463C14.684 8.863 15 8.049 15 7.2C15 6.351 14.684 5.537 14.121 4.937C13.8506 4.64369 13.5228 4.40915 13.1579 4.24795C12.793 4.08676 12.3989 4.00236 12 4C11.204 4 10.441 4.337 9.879 4.937C9.31004 5.55283 8.99591 6.36158 9 7.2C9 8.049 9.316 8.863 9.879 9.463C10.441 10.063 11.204 10.4 12 10.4ZM5 20C5 19.02 5.181 18.049 5.533 17.143C5.87904 16.2457 6.39402 15.4232 7.05 14.72C7.6906 14.0336 8.46298 13.4833 9.321 13.102C10.1646 12.7278 11.0771 12.5339 12 12.533C12.92 12.533 13.83 12.727 14.679 13.102C15.529 13.477 16.299 14.027 16.949 14.72C17.6054 15.4231 18.1207 16.2456 18.467 17.143C18.82 18.048 19 19.02 19 20H5Z" fill="white"/>
</svg>
